<svg width="220" height="70" viewBox="0 0 220 70" fill="none" xmlns="http://www.w3.org/2000/svg">
<path d="M32.28 50H24L21.32 44L19.6 41.2H15.56V44L15.96 50H9.39999L9.79999 44V25.8L9.39999 20H19.84C23.3867 20 26.0133 20.88 27.72 22.64C29.4533 24.3733 30.32 27.0133 30.32 30.56C30.32 32.72 29.8667 34.6 28.96 36.2C28.08 37.8 26.8533 39.0267 25.28 39.88L27.84 44L32.28 50ZM15.56 35.68H18.16C20.4267 35.68 22.0133 35.3067 22.92 34.56C23.8533 33.8133 24.32 32.48 24.32 30.56C24.32 29.2267 24.1333 28.2 23.76 27.48C23.3867 26.76 22.76 26.2533 21.88 25.96C21.0267 25.6667 19.8133 25.52 18.24 25.52H15.56V35.68Z" fill="#ACB939"/>
<path d="M53.4687 44.48L52.5887 50H34.8687L35.2687 44V25.8L34.8687 20H53.0687L52.1887 25.52H41.0287V31.8H51.1887L50.3087 37.32H41.0287V44.48H53.4687Z" fill="#ACB939"/>
<path d="M78.6581 44L79.0581 50H69.9781L62.3381 26.32V44L62.7381 50H56.9781L57.3781 44V25.8L56.9781 20H66.0981L73.6981 43.56V25.8L73.2981 20H79.0581L78.6581 25.8V44Z" fill="#ACB939"/>
<path d="M94.6531 50.64C90.7598 50.64 87.8398 49.3067 85.8931 46.64C83.9464 43.9467 82.9731 40.0267 82.9731 34.88C82.9731 29.7867 83.9331 25.9333 85.8531 23.32C87.7998 20.68 90.7331 19.36 94.6531 19.36C98.5731 19.36 101.493 20.68 103.413 23.32C105.36 25.9333 106.333 29.7867 106.333 34.88C106.333 40.0267 105.36 43.9467 103.413 46.64C101.466 49.3067 98.5465 50.64 94.6531 50.64ZM94.6531 45C96.0931 45 97.2131 44.6933 98.0131 44.08C98.8398 43.44 99.4265 42.4 99.7731 40.96C100.146 39.4933 100.333 37.4667 100.333 34.88C100.333 32.3733 100.146 30.4133 99.7731 29C99.4265 27.5867 98.8398 26.5733 98.0131 25.96C97.1865 25.32 96.0665 25 94.6531 25C93.2398 25 92.1198 25.32 91.2931 25.96C90.4665 26.5733 89.8665 27.5867 89.4931 29C89.1465 30.4133 88.9731 32.3733 88.9731 34.88C88.9731 37.4667 89.1465 39.4933 89.4931 40.96C89.8665 42.4 90.4531 43.44 91.2531 44.08C92.0798 44.6933 93.2131 45 94.6531 45Z" fill="#ACB939"/>
<path d="M134.791 30H131.268C131.06 28.9867 130.696 28.0966 130.175 27.3295C129.663 26.5625 129.038 25.9185 128.3 25.3977C127.571 24.8674 126.761 24.4697 125.871 24.2045C124.981 23.9394 124.053 23.8068 123.087 23.8068C121.325 23.8068 119.73 24.2519 118.3 25.142C116.879 26.0322 115.748 27.3437 114.905 29.0767C114.071 30.8096 113.655 32.9356 113.655 35.4545C113.655 37.9735 114.071 40.0994 114.905 41.8324C115.748 43.5653 116.879 44.8769 118.3 45.767C119.73 46.6572 121.325 47.1023 123.087 47.1023C124.053 47.1023 124.981 46.9697 125.871 46.7045C126.761 46.4394 127.571 46.0464 128.3 45.5256C129.038 44.9953 129.663 44.3466 130.175 43.5795C130.696 42.803 131.06 41.9129 131.268 40.9091H134.791C134.526 42.3958 134.043 43.7263 133.342 44.9006C132.642 46.0748 131.77 47.0739 130.729 47.8977C129.687 48.7121 128.518 49.3324 127.22 49.7585C125.932 50.1846 124.554 50.3977 123.087 50.3977C120.606 50.3977 118.399 49.7917 116.467 48.5795C114.536 47.3674 113.016 45.6439 111.908 43.4091C110.8 41.1742 110.246 38.5227 110.246 35.4545C110.246 32.3864 110.8 29.7348 111.908 27.5C113.016 25.2651 114.536 23.5417 116.467 22.3295C118.399 21.1174 120.606 20.5113 123.087 20.5113C124.554 20.5113 125.932 20.7244 127.22 21.1506C128.518 21.5767 129.687 22.2017 130.729 23.0256C131.77 23.8399 132.642 24.8343 133.342 26.0085C134.043 27.1733 134.526 28.5038 134.791 30Z" fill="black"/>
<path d="M141.677 50H137.984L148.665 20.9091H152.302L162.984 50H159.29L150.597 25.5113H150.37L141.677 50ZM143.04 38.6364H157.927V41.7614H143.04V38.6364Z" fill="black"/>
<path d="M167.515 50V20.9091H177.344C179.617 20.9091 181.483 21.2973 182.941 22.0738C184.399 22.8409 185.479 23.8968 186.18 25.2415C186.88 26.5862 187.231 28.1155 187.231 29.8295C187.231 31.5435 186.88 33.0634 186.18 34.3892C185.479 35.7149 184.404 36.7566 182.955 37.5142C181.506 38.2623 179.655 38.6364 177.401 38.6364H169.447V35.4545H177.288C178.841 35.4545 180.091 35.2273 181.038 34.7727C181.994 34.3182 182.685 33.6742 183.111 32.8409C183.547 31.9981 183.765 30.9943 183.765 29.8295C183.765 28.6648 183.547 27.6468 183.111 26.7756C182.676 25.9043 181.98 25.232 181.023 24.7585C180.067 24.2756 178.803 24.0341 177.231 24.0341H171.038V50H167.515ZM181.208 36.9318L188.367 50H184.276L177.231 36.9318H181.208Z" fill="black"/>
<path d="M193.101 50V20.9091H210.658V24.0341H196.624V33.8636H209.749V36.9886H196.624V46.875H210.885V50H193.101Z" fill="black"/>
</svg>
