<svg xmlns="http://www.w3.org/2000/svg" xmlns:xlink="http://www.w3.org/1999/xlink" width="500" zoomAndPan="magnify" viewBox="0 0 375 374.999991" height="500" preserveAspectRatio="xMidYMid meet" version="1.0"><defs><g/></defs><g fill="#000000" fill-opacity="1"><g transform="translate(177.451164, 190.301076)"><g><path d="M 6.09375 0.1875 C 5 0.1875 4.050781 -0.0507812 3.25 -0.53125 C 2.457031 -1.019531 1.84375 -1.695312 1.40625 -2.5625 C 0.96875 -3.4375 0.75 -4.445312 0.75 -5.59375 C 0.75 -6.738281 0.96875 -7.742188 1.40625 -8.609375 C 1.84375 -9.484375 2.457031 -10.164062 3.25 -10.65625 C 4.050781 -11.144531 5 -11.390625 6.09375 -11.390625 C 7.375 -11.390625 8.414062 -11.082031 9.21875 -10.46875 C 10.03125 -9.851562 10.546875 -9 10.765625 -7.90625 L 9.28125 -7.90625 C 9.113281 -8.59375 8.765625 -9.144531 8.234375 -9.5625 C 7.703125 -9.988281 6.988281 -10.203125 6.09375 -10.203125 C 5.289062 -10.203125 4.59375 -10.019531 4 -9.65625 C 3.40625 -9.289062 2.941406 -8.765625 2.609375 -8.078125 C 2.285156 -7.390625 2.125 -6.5625 2.125 -5.59375 C 2.125 -4.632812 2.285156 -3.8125 2.609375 -3.125 C 2.941406 -2.4375 3.40625 -1.90625 4 -1.53125 C 4.59375 -1.164062 5.289062 -0.984375 6.09375 -0.984375 C 6.988281 -0.984375 7.703125 -1.1875 8.234375 -1.59375 C 8.765625 -2.007812 9.113281 -2.5625 9.28125 -3.25 L 10.765625 -3.25 C 10.546875 -2.164062 10.03125 -1.320312 9.21875 -0.71875 C 8.414062 -0.113281 7.375 0.1875 6.09375 0.1875 Z M 6.09375 0.1875 "/></g></g></g><g fill="#000000" fill-opacity="1"><g transform="translate(188.968394, 190.301076)"><g><path d="M 0.484375 0 L 4.609375 -11.203125 L 6.03125 -11.203125 L 10.140625 0 L 8.71875 0 L 7.703125 -2.875 L 2.921875 -2.875 L 1.890625 0 Z M 3.328125 -3.96875 L 7.296875 -3.96875 L 5.3125 -9.5 Z M 3.328125 -3.96875 "/></g></g></g><g fill="#000000" fill-opacity="1"><g transform="translate(199.589838, 190.301076)"><g><path d="M 1.1875 0 L 1.1875 -11.203125 L 4.796875 -11.203125 C 5.671875 -11.203125 6.382812 -11.054688 6.9375 -10.765625 C 7.5 -10.484375 7.910156 -10.085938 8.171875 -9.578125 C 8.441406 -9.078125 8.578125 -8.523438 8.578125 -7.921875 C 8.578125 -7.210938 8.382812 -6.578125 8 -6.015625 C 7.625 -5.453125 7.035156 -5.050781 6.234375 -4.8125 L 8.6875 0 L 7.109375 0 L 4.828125 -4.625 L 2.53125 -4.625 L 2.53125 0 Z M 2.53125 -5.6875 L 4.703125 -5.6875 C 5.566406 -5.6875 6.195312 -5.890625 6.59375 -6.296875 C 6.988281 -6.710938 7.1875 -7.25 7.1875 -7.90625 C 7.1875 -8.5625 6.988281 -9.082031 6.59375 -9.46875 C 6.207031 -9.863281 5.570312 -10.0625 4.6875 -10.0625 L 2.53125 -10.0625 Z M 2.53125 -5.6875 "/></g></g></g><g fill="#000000" fill-opacity="1"><g transform="translate(209.075559, 190.301076)"><g><path d="M 1.1875 0 L 1.1875 -11.203125 L 8.109375 -11.203125 L 8.109375 -10.09375 L 2.53125 -10.09375 L 2.53125 -6.1875 L 7.625 -6.1875 L 7.625 -5.109375 L 2.53125 -5.109375 L 2.53125 -1.109375 L 8.109375 -1.109375 L 8.109375 0 Z M 1.1875 0 "/></g></g></g><g fill="#acb939" fill-opacity="1"><g transform="translate(132.275386, 190.301076)"><g><path d="M 1.203125 -0.65625 L 1.203125 -3.03125 L 1.171875 -3.34375 L 1.1875 -4.640625 L 1.21875 -4.9375 L 1.1875 -5.25 L 1.1875 -5.5625 L 1.171875 -5.921875 L 1.21875 -6.5625 L 1.1875 -6.875 L 1.171875 -10.546875 L 1.359375 -10.984375 L 1.640625 -11.15625 L 2.59375 -11.234375 L 2.9375 -11.21875 L 3.265625 -11.15625 L 3.578125 -11.15625 L 3.875 -11.234375 L 4.1875 -11.234375 L 4.515625 -11.171875 L 5.46875 -11.171875 L 5.9375 -11.203125 L 6.453125 -11.1875 L 7.359375 -10.96875 L 7.96875 -10.765625 L 8.53125 -10.46875 L 9.4375 -9.5 L 9.609375 -9.25 L 9.75 -8.96875 L 10.03125 -8.0625 L 10.078125 -7.75 L 10.109375 -6.734375 L 9.90625 -5.8125 L 9.28125 -4.6875 L 9.0625 -4.5 L 8.828125 -4.25 L 8.6875 -3.90625 L 8.703125 -3.515625 L 8.890625 -3.28125 L 9.40625 -2.453125 L 9.546875 -2.15625 L 10.09375 -1.34375 L 10.21875 -1.046875 L 10.421875 -0.8125 L 10.59375 -0.46875 L 10.5 -0.109375 L 10.1875 0.03125 L 9.65625 0.046875 L 9.359375 0.015625 L 8.09375 0.03125 L 7.546875 -0.109375 L 7.203125 -0.40625 L 7.03125 -0.671875 L 6.890625 -0.984375 L 6.71875 -1.234375 L 6.421875 -1.8125 L 6.078125 -2.28125 L 5.953125 -2.578125 L 5.765625 -2.890625 L 5.4375 -3.171875 L 4.515625 -3.296875 L 4.203125 -3.125 L 4.0625 -2.796875 L 4.03125 -1.78125 L 4.078125 -1.4375 L 4.046875 -1.15625 L 4.046875 -0.609375 L 3.90625 -0.140625 L 3.390625 0.015625 L 2.90625 0.015625 L 2.65625 0.046875 L 2.140625 0 L 1.828125 0.046875 L 1.359375 -0.15625 Z M 4.515625 -5.859375 L 4.859375 -5.890625 L 5.625 -5.859375 L 5.9375 -5.875 L 6.40625 -5.984375 L 6.6875 -6.109375 L 6.859375 -6.25 L 7.046875 -6.5 L 7.1875 -6.8125 L 7.234375 -7.296875 L 7.171875 -7.71875 L 7.078125 -7.96875 L 6.671875 -8.46875 L 6.375 -8.546875 L 5.953125 -8.578125 L 5.5 -8.671875 L 4.859375 -8.609375 L 4.546875 -8.625 L 4.203125 -8.5 L 4.0625 -8.1875 L 4.03125 -7.515625 L 4.0625 -7.25 L 4.0625 -6.28125 L 4.1875 -6.03125 Z M 4.515625 -5.859375 "/></g></g></g><g fill="#acb939" fill-opacity="1"><g transform="translate(143.376715, 190.301076)"><g><path d="M 5.5625 0.046875 L 5.25 0.015625 L 4.921875 0.046875 L 4.5625 0.03125 L 4.25 -0.03125 L 3.59375 0.015625 L 3.3125 0 L 2.953125 0.03125 L 1.8125 0.015625 L 1.328125 -0.1875 L 1.203125 -0.625 L 1.171875 -0.96875 L 1.21875 -2.078125 L 1.171875 -2.40625 L 1.203125 -2.703125 L 1.21875 -5.296875 L 1.171875 -5.578125 L 1.1875 -6.890625 L 1.21875 -7.203125 L 1.171875 -7.53125 L 1.203125 -9.109375 L 1.15625 -9.453125 L 1.203125 -10.109375 L 1.171875 -10.71875 L 1.34375 -11.0625 L 1.6875 -11.1875 L 2 -11.171875 L 2.3125 -11.203125 L 2.609375 -11.171875 L 2.90625 -11.234375 L 3.234375 -11.1875 L 4.546875 -11.21875 L 4.859375 -11.1875 L 5.140625 -11.203125 L 5.453125 -11.171875 L 5.8125 -11.203125 L 7.109375 -11.21875 L 7.390625 -11.15625 L 7.734375 -11.15625 L 8.046875 -11.03125 L 8.1875 -10.71875 L 8.21875 -9.765625 L 8.203125 -9.4375 L 8.21875 -9.125 L 8.0625 -8.828125 L 7.734375 -8.640625 L 7.421875 -8.625 L 5.140625 -8.65625 L 4.828125 -8.59375 L 4.53125 -8.609375 L 4.171875 -8.484375 L 4.03125 -8.171875 L 4.03125 -7.6875 L 4.15625 -7.1875 L 4.5 -7.046875 L 5.421875 -7.078125 L 6.09375 -7.03125 L 6.4375 -7.0625 L 7.375 -7.0625 L 7.75 -6.84375 L 7.90625 -6.40625 L 7.859375 -4.953125 L 7.75 -4.640625 L 7.421875 -4.515625 L 7.0625 -4.53125 L 6.734375 -4.5 L 6.078125 -4.515625 L 5.46875 -4.484375 L 4.953125 -4.53125 L 4.484375 -4.515625 L 4.1875 -4.34375 L 4.046875 -4 L 4.046875 -2.984375 L 4.171875 -2.703125 L 4.515625 -2.546875 L 4.859375 -2.578125 L 5.171875 -2.53125 L 5.515625 -2.546875 L 5.84375 -2.515625 L 6.375 -2.578125 L 7.1875 -2.5625 L 7.484375 -2.515625 L 7.859375 -2.546875 L 8.1875 -2.40625 L 8.375 -2.078125 L 8.375 -0.46875 L 8.1875 -0.125 L 7.859375 0.015625 Z M 5.5625 0.046875 "/></g></g></g><g fill="#acb939" fill-opacity="1"><g transform="translate(152.542517, 190.301076)"><g><path d="M 9.4375 -0.265625 L 9.203125 -0.484375 L 8.78125 -0.9375 L 6.296875 -3.40625 L 6.03125 -3.578125 L 5.828125 -3.828125 L 4.6875 -4.90625 L 4.484375 -5.1875 L 4.265625 -5.265625 L 4.15625 -4.984375 L 4.125 -4.671875 L 4.109375 -0.625 L 3.953125 -0.125 L 3.625 0.03125 L 3.296875 0.046875 L 2.671875 0 L 2.3125 0.03125 L 1.65625 0 L 1.328125 -0.109375 L 1.1875 -0.421875 L 1.15625 -1.765625 L 1.1875 -2.0625 L 1.15625 -4.6875 L 1.203125 -4.953125 L 1.171875 -5.609375 L 1.1875 -5.890625 L 1.1875 -10.734375 L 1.328125 -11.046875 L 1.703125 -11.203125 L 2.171875 -11.09375 L 2.546875 -10.890625 L 2.78125 -10.703125 L 5.9375 -7.515625 L 6.390625 -7.171875 L 7.515625 -6.03125 L 7.765625 -5.921875 L 7.859375 -6.1875 L 7.890625 -9.0625 L 7.859375 -9.40625 L 7.90625 -10.078125 L 7.859375 -10.34375 L 7.875 -10.671875 L 8.046875 -11.015625 L 8.359375 -11.1875 L 10.34375 -11.203125 L 10.65625 -11.03125 L 10.8125 -10.703125 L 10.859375 -8.484375 L 10.8125 -8.09375 L 10.8125 -6.515625 L 10.859375 -6.234375 L 10.828125 -0.40625 L 10.671875 -0.078125 L 10.3125 0.03125 L 9.875 -0.015625 Z M 9.4375 -0.265625 "/></g></g></g><g fill="#acb939" fill-opacity="1"><g transform="translate(164.603616, 190.301076)"><g><path d="M 6.421875 0.203125 L 5.453125 0.15625 L 4.09375 -0.234375 L 3.796875 -0.375 L 2.703125 -0.9375 L 2.5 -1.1875 L 2.046875 -1.609375 L 1.296875 -2.640625 L 1.140625 -2.921875 L 1.046875 -3.265625 L 0.796875 -3.8125 L 0.625 -4.8125 L 0.6875 -6.671875 L 0.8125 -7.359375 L 1.125 -8.234375 L 1.265625 -8.515625 L 1.8125 -9.3125 L 2.234375 -9.796875 L 2.75 -10.140625 L 2.96875 -10.34375 L 3.796875 -10.84375 L 4.40625 -11.015625 L 4.6875 -11.140625 L 5.015625 -11.234375 L 5.328125 -11.296875 L 6.453125 -11.359375 L 7.203125 -11.34375 L 9.296875 -10.6875 L 10.109375 -10.171875 L 10.796875 -9.546875 L 11.015625 -9.265625 L 11.203125 -9.078125 L 11.40625 -8.796875 L 11.515625 -8.515625 L 11.8125 -7.984375 L 11.890625 -7.609375 L 12.015625 -7.28125 L 12.140625 -6.6875 L 12.21875 -5.578125 L 12.140625 -4.46875 L 12.078125 -4.109375 L 11.984375 -3.859375 L 11.9375 -3.53125 L 11.828125 -3.234375 L 11.203125 -2.125 L 10.984375 -1.84375 L 9.875 -0.765625 L 8.453125 -0.125 L 7.84375 0.0625 Z M 5.96875 -2.609375 L 6.890625 -2.640625 L 7.203125 -2.71875 L 7.484375 -2.75 L 7.75 -2.890625 L 8.03125 -3.03125 L 8.53125 -3.40625 L 8.71875 -3.703125 L 8.859375 -3.9375 L 9.046875 -4.171875 L 9.1875 -4.828125 L 9.28125 -5.625 L 9.21875 -6.3125 L 9.109375 -6.609375 L 9.015625 -6.921875 L 8.875 -7.21875 L 8.515625 -7.765625 L 8.015625 -8.125 L 7.171875 -8.5 L 6.40625 -8.546875 L 5.65625 -8.484375 L 5.328125 -8.40625 L 5.046875 -8.25 L 4.578125 -7.9375 L 4.34375 -7.734375 L 4.125 -7.46875 L 3.984375 -7.203125 L 3.796875 -6.96875 L 3.703125 -6.6875 L 3.578125 -6.09375 L 3.5625 -5.609375 L 3.640625 -4.8125 L 3.953125 -3.921875 L 4.15625 -3.703125 L 4.3125 -3.46875 L 4.8125 -3.046875 L 5.359375 -2.75 L 5.640625 -2.71875 Z M 5.96875 -2.609375 "/></g></g></g></svg>